{"title":"The.Kings.Speech.2010.BRRIP.720P.H264-ZEKTORM","uid":6271983,"size":3041553243,"categoryP":"video","categoryS":"hd___movies","magnet":"?xt=urn:btih:135756873fae0907b1cef72482972845c0807751&amp;dn=The.Kings.Speech.2010.BRRIP.720P.H264-ZEKTORM&amp;tr=udp%3A%2F%2Ftracker.openbittorrent.com%3A80&amp;tr=udp%3A%2F%2Fopen.demonii.com%3A1337&amp;tr=udp%3A%2F%2Ftracker.coppersurfer.tk%3A6969&amp;tr=udp%3A%2F%2Fexodus.desync.com%3A6969","seeders":0,"leechers":1,"uploader":"blowley","files":4,"time":1301135219,"description":"Title                            : The King's Speech\nYear                             : 2010\nGenre                            : Biography | Drama | History\niMDB URL                         : http://www.imdb.com/title/tt1504320/\n\nComplete name                    : The.Kings.Speech.2010.BRRIP.720P.H264-ZEKTORM.mp4\nFormat                           : MPEG-4\nFormat profile                   : Base Media\nCodec ID                         : isom\nFile size                        : 2.83 GiB\nDuration                         : 1h 58mn\nOverall bit rate                 : 3423 Kbps\nSubtitles                        : English (Format: srt)\n\nVideo\nID                               : 1\nFormat                           : AVC\nFormat/Info                      : Advanced Video Codec\nFormat profile                   : &lt;a class=&quot;__cf_email__&quot; href=&quot;/cdn-cgi/l/email-protection&quot; data-cfemail=&quot;266e4f414e666a120816&quot;&gt;[email&amp;#160;protected]&lt;/a&gt;&lt;script cf-hash='f9e31' type=&quot;text/javascript&quot;&gt;\n/* &lt;![CDATA[ */!function(){try{var t=&quot;currentScript&quot;in document?document.currentScript:function(){for(var t=document.getElementsByTagName(&quot;script&quot;),e=t.length;e--;)if(t[e].getAttribute(&quot;cf-hash&quot;))return t[e]}();if(t&amp;&amp;t.previousSibling){var e,r,n,i,c=t.previousSibling,a=c.getAttribute(&quot;data-cfemail&quot;);if(a){for(e=&quot;&quot;,r=parseInt(a.substr(0,2),16),n=2;a.length-n;n+=2)i=parseInt(a.substr(n,2),16)^r,e+=String.fromCharCode(i);e=document.createTextNode(e),c.parentNode.replaceChild(e,c)}}}catch(u){}}();/* ]]&gt; */&lt;/script&gt;\nFormat settings, CABAC           : Yes\nFormat settings, ReFrames        : 9 frames\nCodec ID                         : avc1\nCodec ID/Info                    : Advanced Video Coding\nDuration                         : 1h 58mn\nBit rate mode                    : Variable\nBit rate                         : 3217 Kbps\nWidth                            : 1280 pixels\nHeight                           : 720 pixels\nDisplay aspect ratio             : 16/9\nFrame rate mode                  : Constant\nFrame rate                       : 23.976 fps\nResolution                       : 24 bits\nColorimetry                      : 4:2:0\nScan type                        : Progressive\nBits/(Pixel*Frame)               : 0.146\nStream size                      : 2.66 GiB (94%)\nTitle                            : Video\nWriting library                  : x264\n\nAudio\nID                               : 2\nFormat                           : AAC\nFormat/Info                      : Advanced Audio Codec\nFormat version                   : Version 4\nFormat profile                   : LC\nFormat settings, SBR             : Yes\nFormat settings, PS              : No\nCodec ID                         : 40\nDuration                         : 1h 58mn\nBit rate mode                    : Variable\nBit rate                         : 203 Kbps\nMaximum bit rate                 : 253 Kbps\nChannel(s)                       : 6 channels\nChannel positions                : Front: L C R, Rear: L R, LFE\nSampling rate                    : 48.0 KHz\nResolution                       : 16 bits\nStream size                      : 172 MiB (6%)\nTitle                            : English\nLanguage                         : English\n\n\n\nScreenshots:\n &lt;a href=&quot;\nhttp://i.min.us/imcadQ.png&quot; rel=&quot;nofollow&quot; target=&quot;_NEW&quot;&gt;\nhttp://i.min.us/imcadQ.png&lt;/a&gt;\n &lt;a href=&quot;\nhttp://i.min.us/ilXYIK.png&quot; rel=&quot;nofollow&quot; target=&quot;_NEW&quot;&gt;\nhttp://i.min.us/ilXYIK.png&lt;/a&gt;\n &lt;a href=&quot;\nhttp://i.min.us/ijPw5K.png&quot; rel=&quot;nofollow&quot; target=&quot;_NEW&quot;&gt;\nhttp://i.min.us/ijPw5K.png&lt;/a&gt;\n &lt;a href=&quot;\nhttp://i.min.us/ijTN0y.png&quot; rel=&quot;nofollow&quot; target=&quot;_NEW&quot;&gt;\nhttp://i.min.us/ijTN0y.png&lt;/a&gt;\n","torrent":{"xt":"urn:btih:135756873fae0907b1cef72482972845c0807751","amp;dn":"The.Kings.Speech.2010.BRRIP.720P.H264-ZEKTORM","amp;tr":["udp%3A%2F%2Ftracker.openbittorrent.com%3A80","udp%3A%2F%2Fopen.demonii.com%3A1337","udp%3A%2F%2Ftracker.coppersurfer.tk%3A6969","udp%3A%2F%2Fexodus.desync.com%3A6969"],"infoHash":"135756873fae0907b1cef72482972845c0807751","infoHashBuffer":{"type":"Buffer","data":[19,87,86,135,63,174,9,7,177,206,247,36,130,151,40,69,192,128,119,81]},"announce":[],"urlList":[]}}